/vscmnt/brussel_pixiu_data/_data_brussel/112/vsc11236/PredSimResults/SUBJ09mtu3D/weighted-LRposFixed/trackIG/worker_04.mot
version=1
nRows=6
nColumns=50
inDegrees=yes
endheader
                time	         pelvis_tilt	         pelvis_list	     pelvis_rotation	           pelvis_tx	           pelvis_ty	           pelvis_tz	       hip_flexion_r	     hip_adduction_r	      hip_rotation_r	        knee_angle_r	       ankle_angle_r	         mtp_angle_r	       hip_flexion_l	     hip_adduction_l	      hip_rotation_l	        knee_angle_l	       ankle_angle_l	         mtp_angle_l	    lumbar_extension	      lumbar_bending	     lumbar_rotation	 ercspn_r/activation	 intobl_r/activation	 extobl_r/activation	    abd_r/activation	    add_r/activation	hamstrings_r/activation	bifemsh_r/activation	glut_max_r/activation	iliopsoas_r/activation	rect_fem_r/activation	  vasti_r/activation	gastroc_r/activation	 soleus_r/activation	tib_ant_r/activation	 ercspn_l/activation	 intobl_l/activation	 extobl_l/activation	    abd_l/activation	    add_l/activation	hamstrings_l/activation	bifemsh_l/activation	glut_max_l/activation	iliopsoas_l/activation	rect_fem_l/activation	  vasti_l/activation	gastroc_l/activation	 soleus_l/activation	tib_ant_l/activation	
          0.65858245	         -7.85198653	          4.66480444	         -7.98796261	          0.73761234	          0.98239283	          0.01397843	         -9.96443616	         -4.79710695	          6.47522377	         -6.16259384	         11.26971651	         26.42159167	         31.10961000	          1.27025586	         -5.13912305	         -1.76591037	          6.47099906	          0.21640248	         -0.20981755	         -2.83700828	          3.50746919	          0.03637780	          0.00999999	          0.00999999	          0.06057280	          0.01423356	          0.02280495	          0.13900377	          0.05966559	          0.48482216	          0.00999999	          0.00999999	          0.35242391	          0.29147009	          0.01517361	          0.09021998	          0.13197458	          0.03289646	          0.01219526	          0.06986733	          0.12340434	          0.20204051	          0.00999999	          0.11366156	          0.00999999	          0.00999999	          0.01000000	          0.00999999	          0.26394753	
          0.67175410	         -7.95570021	          4.58193064	         -7.99122239	          0.75560807	          0.98009060	          0.01360235	        -10.27524562	         -4.74217315	          6.06209367	         -7.37224712	         10.68292845	         28.36190080	         31.34481197	          1.36165948	         -5.00016936	         -3.62671214	          6.02758199	          0.21938903	          0.09140294	         -3.14089308	          3.61329793	          0.08027872	          0.00999999	          0.00999999	          0.04966907	          0.04313477	          0.01869983	          0.11398166	          0.04892517	          0.49806683	          0.00999999	          0.00999999	          0.32671605	          0.27517901	          0.01244220	          0.07397946	          0.10821780	          0.02697476	          0.00999999	          0.12077027	          0.10657746	          0.16567114	          0.06924829	          0.09320131	          0.00999999	          0.00999999	          0.02230122	          0.01487246	          0.27599970	
          0.68492575	         -8.03749716	          4.49208386	         -7.94381655	          0.77408146	          0.97805517	          0.01315823	        -10.46366938	         -4.66678701	          5.62507736	         -8.88761340	          9.93890921	         30.38090362	         31.37604156	          1.43695871	         -4.83282845	         -5.39804624	          5.55343642	          0.20104718	          0.41883711	         -3.44809748	          3.68957580	          0.07664658	          0.00999999	          0.00999999	          0.04072813	          0.03537007	          0.02176069	          0.09346379	          0.04011813	          0.48598811	          0.00999999	          0.01813737	          0.29829706	          0.25505628	          0.01020248	          0.06160750	          0.08873749	          0.02211902	          0.06032926	          0.10342363	          0.09549108	          0.13584864	          0.11275928	          0.07642412	          0.00999999	          0.00999999	          0.01828677	          0.01219526	          0.32637571	
          0.69809740	         -8.10076163	          4.39078933	         -7.84692937	          0.79271009	          0.97655381	          0.01261815	        -10.43386920	         -4.56204050	          5.17505168	        -10.82127628	          8.97216569	         32.47086065	         31.22110063	          1.51873454	         -4.69531816	         -6.85433535	          4.93210613	          0.17755834	          0.73882390	         -3.75029739	          3.73233666	          0.10459932	          0.00999999	          0.00999999	          0.03339665	          0.04427943	          0.02018827	          0.07663935	          0.03289646	          0.47063386	          0.00999999	          0.01487246	          0.24792471	          0.21308802	          0.00999999	          0.07120528	          0.07276383	          0.01813737	          0.11848883	          0.12705094	          0.08115410	          0.11139448	          0.16233280	          0.06266699	          0.00999999	          0.00999999	          0.01499496	          0.00999999	          0.36008160	
          0.71126905	         -8.14457166	          4.28334568	         -7.70423639	          0.81121500	          0.97576638	          0.01199403	        -10.10043949	         -4.42911982	          4.71403727	        -13.29022647	          7.78041348	         34.51282974	         30.97163060	          1.61508180	         -4.58014620	         -8.19793026	          4.46419843	          0.14718572	          1.02611998	         -4.05550825	          3.73854292	          0.13436238	          0.00999999	          0.00999999	          0.02738491	          0.05951311	          0.01912496	          0.06284348	          0.02697476	          0.43537423	          0.00999999	          0.01219526	          0.20329572	          0.17472999	          0.00999999	          0.06850701	          0.05966559	          0.01487246	          0.15490621	          0.14483466	          0.06701078	          0.09134233	          0.19476011	          0.05138629	          0.00999999	          0.00999999	          0.01229571	          0.00999999	          0.37935384	
          0.72444069	         -8.16740529	          4.17164149	         -7.51807408	          0.82939623	          0.97574605	          0.01130467	         -9.41578662	         -4.27070663	          4.23732380	        -16.34947191	          6.37370425	         36.29983328	         30.67477933	          1.72309156	         -4.46891076	         -9.50108126	          4.19819385	          0.12733748	          1.26430101	         -4.36657965	          3.70634038	          0.15215887	          0.00999999	          0.00999999	          0.02245534	          0.08320423	          0.02672578	          0.05153100	          0.02211902	          0.37621242	          0.00999999	          0.00999999	          0.16670040	          0.14327679	          0.00999999	          0.06773438	          0.04892517	          0.01219526	          0.16955313	          0.13197458	          0.06007324	          0.07489977	          0.20397525	          0.04213623	          0.00999999	          0.07408631	          0.01008236	          0.00999999	          0.38552254	
